<?xml version="1.0" encoding="UTF-8"?>
<svg xmlns="http://www.w3.org/2000/svg" viewBox="0 0 1400 1400" width="1400" height="1400">
  <defs>
    <linearGradient id="greenGrad" x1="0%" y1="0%" x2="100%" y2="100%">
      <stop offset="0%" stop-color="#1a5c2a"/>
      <stop offset="50%" stop-color="#0d4a1a"/>
      <stop offset="100%" stop-color="#1b6b30"/>
    </linearGradient>
  </defs>
  <path d="M524.71,1114.44C589.13,1107.77 640.54,1088.27 684.12,1053.96C694.58,1045.73 716.24,1023.22 723.44,1013.09C746.22,981.07 759.22,946.05 763.11,906.24C764.77,889.19 763.76,856.44 761.10,841.50C752.66,794.08 734.14,759.43 699.38,726.00C662.55,690.59 614.54,663.49 521.00,625.31C440.77,592.56 399.04,570.76 370.10,546.48C331.93,514.45 314.95,473.13 319.96,424.50C325.02,375.34 351.13,336.05 392.59,315.20C403.75,309.60 418.70,304.56 430.54,302.41C442.53,300.24 471.91,299.91 485.12,301.81C523.46,307.30 563.53,328.76 593.04,359.61C614.94,382.51 630.36,406.56 647.14,444.00C651.45,453.62 655.32,461.40 655.74,461.29C657.18,460.88 666.01,444.48 670.51,433.85C672.99,427.99 675.99,419.03 677.18,413.93C679.31,404.79 679.31,404.54 677.59,393.74C674.26,372.85 667.10,352.23 659.21,340.83C648.09,324.75 628.56,313.08 591.50,300.35C535.30,281.04 462.16,274.86 405.12,284.60C376.67,289.46 359.27,294.46 336.00,304.47C308.64,316.24 289.35,328.93 269.32,348.34C236.22,380.42 218.65,413.47 209.95,460.00C206.91,476.26 206.12,509.61 208.37,527.01C217.97,601.23 260.94,657.55 342.61,702.97C357.87,711.45 398.37,730.49 429.76,743.93C509.99,778.27 540.91,793.59 569.90,813.35C603.75,836.42 623.35,860.82 633.90,893.00C638.63,907.45 640.04,915.96 640.66,934.00C641.52,959.09 637.74,981.41 628.89,1003.50C623.66,1016.57 619.41,1024.04 610.46,1035.92C587.57,1066.31 555.24,1085.36 514.04,1092.73C501.00,1095.07 497.03,1095.33 475.50,1095.31C449.77,1095.28 441.03,1094.33 421.00,1089.37C362.27,1074.83 305.36,1029.06 265.34,964.18C243.54,928.85 222.66,878.32 212.47,836.25L209.74,825.00L201.22,825.00L192.71,825.00L193.40,843.25C193.78,853.29 194.99,880.85 196.07,904.50C199.37,976.39 201.90,1034.09 203.01,1062.50C203.59,1077.35 204.30,1091.43 204.60,1093.79L205.13,1098.08L213.78,1097.79L222.42,1097.50L223.70,1093.07C225.30,1087.53 229.54,1079.24 232.36,1076.15C240.73,1066.98 257.08,1066.81 282.39,1075.63C353.81,1100.55 380.42,1107.48 428.00,1113.57C455.86,1117.14 495.25,1117.49 524.71,1114.44Z M1146.01,1105.25C1146.03,1099.66 1153.72,1005.42 1160.06,933.07C1161.72,914.14 1162.85,898.05 1162.57,897.32C1162.21,896.38 1159.78,896.00 1154.10,896.00C1147.38,896.00 1146.05,896.27 1145.62,897.75C1145.34,898.71 1143.92,904.45 1142.46,910.50C1133.09,949.56 1115.83,986.00 1093.64,1013.57C1084.76,1024.61 1067.29,1041.12 1055.93,1049.22C1045.20,1056.87 1025.57,1067.31 1012.29,1072.44C999.14,1077.52 977.84,1082.75 960.60,1085.14C946.72,1087.06 939.49,1087.27 871.26,1087.72L797.01,1088.21L796.76,1007.35L796.50,926.50L793.63,938.50C785.54,972.28 770.76,1002.43 749.21,1029.11C727.24,1056.31 696.10,1080.80 661.61,1098.01C652.47,1102.56 645.00,1106.45 645.00,1106.64C645.00,1106.84 757.72,1107.00 895.50,1107.00C1133.40,1107.00 1146.00,1106.91 1146.01,1105.25Z M842.26,708.31C888.58,708.84 896.91,709.49 914.00,713.94C951.55,723.71 977.58,743.44 992.85,773.71C997.17,782.25 1000.77,793.39 1003.46,806.46L1005.73,817.50L1011.57,817.81C1022.62,818.39 1021.70,820.55 1022.28,792.76C1022.85,765.43 1023.62,760.87 1030.00,747.25C1037.99,730.22 1046.84,720.59 1066.39,707.68C1076.15,701.23 1078.08,699.55 1077.81,697.71C1077.60,696.17 1074.16,693.23 1066.43,688.00C1052.87,678.80 1048.62,675.19 1042.43,667.58C1026.76,648.32 1021.00,628.37 1021.00,593.42L1021.00,578.92L1013.25,579.21L1005.50,579.50L1003.43,590.10C998.53,615.28 989.91,632.74 974.34,649.04C961.37,662.61 943.56,673.12 923.00,679.33C900.78,686.03 880.00,687.96 829.75,687.99L797.00,688.00L797.00,617.39C797.00,556.06 796.81,546.86 795.55,547.34C792.57,548.49 773.22,561.46 765.50,567.50C742.44,585.52 723.65,610.17 711.45,638.41C706.01,651.01 698.51,675.28 699.37,677.51C699.64,678.22 703.61,681.64 708.18,685.10C719.47,693.65 739.59,713.39 749.07,725.21C770.85,752.38 783.85,777.83 792.79,810.81L796.50,824.50L796.76,766.14L797.02,707.79L842.26,708.31Z M698.50,604.80C711.84,580.38 732.65,558.16 759.35,539.83L768.20,533.75L762.90,530.13C748.29,520.15 733.58,508.33 726.83,501.15C716.85,490.55 705.02,474.64 698.66,463.27C695.82,458.20 693.22,454.03 692.88,454.02C692.55,454.01 689.67,458.39 686.50,463.75C670.76,490.33 652.54,509.17 622.69,529.73C620.11,531.51 618.01,533.31 618.03,533.73C618.04,534.15 623.78,538.55 630.76,543.50C654.69,560.45 674.06,582.02 688.89,608.25C690.68,611.41 692.45,613.99 692.82,613.98C693.20,613.96 695.75,609.83 698.50,604.80Z M797.00,415.00L797.00,310.00L846.75,310.04C874.11,310.06 904.83,310.48 915.00,310.96C1018.38,315.92 1082.43,362.00 1115.38,455.12C1118.42,463.71 1122.29,476.09 1123.98,482.62C1125.67,489.15 1127.29,495.29 1127.59,496.25C1128.05,497.72 1129.38,498.00 1136.01,498.00C1140.34,498.00 1144.15,497.56 1144.48,497.03C1144.81,496.49 1144.61,492.33 1144.04,487.78C1142.86,478.33 1134.60,401.19 1130.00,356.50C1126.14,319.05 1123.05,291.72 1122.64,291.31C1122.47,291.14 1012.79,291.11 878.91,291.25L635.50,291.50L644.50,296.37C664.23,307.05 678.03,320.02 686.69,336.01C693.73,349.03 697.36,361.97 704.47,399.50C712.38,441.22 731.52,474.13 761.45,497.48C770.95,504.90 793.96,520.00 795.75,520.00C796.74,520.00 797.00,498.36 797.00,415.00Z" fill="url(#greenGrad)" fill-rule="evenodd"/>
</svg>